<?xml version="1.0" encoding="UTF-8" standalone="no"?>
<svg
   width="24"
   height="24"
   viewBox="0 0 24 24"
   fill="#FFFFFF"
   version="1.1"
   id="svg19"
   sodipodi:docname="search.svg"
   inkscape:version="1.2.1 (9c6d41e410, 2022-07-14)"
   xmlns:inkscape="http://www.inkscape.org/namespaces/inkscape"
   xmlns:sodipodi="http://sodipodi.sourceforge.net/DTD/sodipodi-0.dtd"
   xmlns="http://www.w3.org/2000/svg"
   xmlns:svg="http://www.w3.org/2000/svg">
  <defs
     id="defs23" />
  <sodipodi:namedview
     id="namedview21"
     pagecolor="#ffffff"
     bordercolor="#000000"
     borderopacity="0.25"
     inkscape:showpageshadow="2"
     inkscape:pageopacity="0.0"
     inkscape:pagecheckerboard="0"
     inkscape:deskcolor="#d1d1d1"
     showgrid="false"
     inkscape:zoom="33.583333"
     inkscape:cx="12"
     inkscape:cy="14.739454"
     inkscape:window-width="1920"
     inkscape:window-height="1009"
     inkscape:window-x="-8"
     inkscape:window-y="-8"
     inkscape:window-maximized="1"
     inkscape:current-layer="svg19" />
  <path
     fill-rule="evenodd"
     clip-rule="evenodd"
     d="m 16.869262,15.457702 c 2.4438,-3.1385 2.223,-7.6791298 -0.6621,-10.5643098 -3.1242,-3.124192 -8.189559,-3.124192 -11.3137491,0 -3.1242,3.1242 -3.1242,8.1895098 0,11.3137098 2.88518,2.8852 7.4258491,3.1059 10.5643491,0.6622 0.0135,0.0153 0.0276,0.0303 0.0422,0.0449 l 4.2427,4.2426 c 0.3905,0.3906 1.0237,0.3906 1.4142,0 0.3905,-0.3905 0.3905,-1.0236 0,-1.4142 l -4.2426,-4.2426 c -0.0147,-0.0146 -0.0297,-0.0287 -0.045,-0.0423 z m -2.0764,-9.1500898 c 2.3432,2.34314 2.3432,6.1420898 0,8.4852898 -2.3431,2.3431 -6.142099,2.3431 -8.485239,0 -2.34315,-2.3432 -2.34315,-6.1421498 0,-8.4852898 2.34314,-2.34315 6.142139,-2.34315 8.485239,0 z"
     fill="#000000"
     id="path17" />
</svg>
